# xmcd
#
# Track frame offsets: 
#        150
#        20384
#        53827
#        71481
#        93488
#        121802
#        144624
#        168888
#        190078
#        220388
#        244064
#
# Disc length: 3409 seconds
#
# Revision: 0
# Processed by: cddbd v1.5.2PL0 Copyright (c) Steve Scherf et al.
# Submitted via: ExactAudioCopy v0.99pb3
#
DISCID=960d4f0b
DTITLE=Peppe 'O Blues and Hell's Cobra - Living On The Road
DYEAR=1997
DGENRE=Blues
TTITLE0=Living On The Road
TTITLE1=Miss You
TTITLE2=Shake Your Booty
TTITLE3=Lady Sunshine
TTITLE4=Somethink Burning Inside Me
TTITLE5=Born Under a Bad Sign
TTITLE6=Help Me
TTITLE7=So Bad
TTITLE8=Little Wing
TTITLE9=Hey Joe
TTITLE10=Missing Stevie
EXTD=
EXTT0=
EXTT1=
EXTT2=
EXTT3=
EXTT4=
EXTT5=
EXTT6=
EXTT7=
EXTT8=
EXTT9=
EXTT10=
PLAYORDER=
